 <svg version="1.0" xmlns="http://www.w3.org/2000/svg" width="700.000000pt" height="264.000000pt" viewBox="0 0 700.000000 264.000000" preserveAspectRatio="xMidYMid meet">
<metadata>
Created by potrace 1.12, written by Peter Selinger 2001-2015
</metadata>
<g transform="translate(0.000000,264.000000) scale(0.100000,-0.100000)" fill="#000000" stroke="none">
<path d="M954 2160 c-111 -16 -216 -66 -297 -140 -154 -141 -279 -380 -331
-635 -9 -44 -21 -102 -27 -130 -6 -27 -13 -113 -16 -190 -8 -213 29 -365 111
-461 42 -49 131 -98 207 -113 72 -15 230 -16 294 -1 139 30 271 103 362 197
45 48 54 53 59 37 39 -110 68 -145 152 -186 63 -31 74 -33 172 -33 102 0 108
1 184 38 114 56 192 138 255 270 47 98 91 249 91 314 0 35 16 53 47 53 13 0
48 9 78 19 30 11 57 16 60 12 2 -4 0 -23 -5 -42 -5 -19 -25 -110 -45 -204 -19
-93 -48 -231 -64 -305 -16 -74 -27 -138 -24 -142 6 -12 301 -10 308 1 3 6 14
56 25 113 11 57 27 132 35 168 9 36 24 110 35 165 51 262 67 321 110 389 33
52 64 75 111 82 43 7 78 -27 86 -83 5 -38 -12 -148 -42 -273 -8 -36 -25 -122
-37 -192 -19 -110 -21 -137 -11 -194 14 -83 48 -128 124 -167 48 -25 63 -28
129 -25 58 2 88 10 134 32 57 28 130 91 152 131 10 18 14 14 40 -40 23 -48 39
-66 78 -90 45 -27 58 -30 135 -30 81 0 91 2 174 44 61 30 100 58 131 92 24 27
46 49 49 49 3 0 8 -12 11 -26 11 -43 81 -109 147 -139 54 -24 71 -27 134 -23
94 6 157 41 240 131 35 37 65 64 68 60 2 -4 7 -25 11 -46 4 -20 21 -54 39 -74
65 -74 160 -91 279 -49 84 30 144 70 183 123 16 23 33 42 37 42 4 1 16 -16 27
-37 81 -158 321 -198 549 -92 77 36 166 104 216 164 20 25 41 46 45 46 4 0 8
-20 9 -45 1 -94 46 -174 116 -206 81 -37 186 -17 250 47 27 28 76 113 76 134
0 5 -19 10 -43 10 -66 0 -82 17 -81 87 1 32 14 112 29 178 14 66 32 149 40
185 8 36 29 133 47 215 l33 150 65 5 c58 5 65 7 71 30 16 57 14 60 -50 60 -33
0 -63 4 -66 10 -3 5 1 36 9 67 28 110 59 263 54 269 -8 8 -300 -34 -311 -45
-5 -5 -20 -60 -33 -123 -36 -174 -35 -173 -73 -176 -23 -2 -35 -10 -42 -28
-17 -46 -12 -64 19 -64 46 0 50 44 -36 -365 -22 -104 -44 -203 -48 -220 -7
-29 -112 -137 -188 -193 -71 -52 -229 -78 -299 -48 -60 25 -72 56 -72 186 1
147 42 317 112 457 73 148 163 214 207 151 18 -26 21 -105 6 -158 -8 -27 -7
-38 5 -50 23 -22 98 -20 125 5 72 66 63 232 -17 294 -33 27 -120 51 -182 51
-59 0 -169 -28 -230 -59 -177 -91 -325 -372 -350 -666 -9 -103 -33 -156 -88
-192 -37 -25 -105 -23 -133 2 -20 18 -21 27 -17 95 3 41 23 161 45 265 73 344
99 470 106 503 l6 33 -158 -3 -157 -3 -5 -30 c-6 -37 -12 -37 -39 -3 -25 32
-98 58 -160 58 -72 0 -194 -42 -255 -89 -93 -70 -177 -189 -231 -326 -38 -95
-75 -267 -75 -344 0 -37 -7 -57 -30 -89 -38 -52 -80 -74 -144 -74 -40 0 -54 4
-69 23 -24 30 -21 67 27 289 19 91 49 235 67 320 17 85 36 161 41 168 6 7 34
12 70 12 62 0 62 0 72 58 l5 32 -59 0 c-32 0 -61 4 -64 9 -3 4 10 80 29 167
18 88 30 163 26 167 -8 8 -300 -29 -310 -39 -4 -3 -19 -71 -36 -152 l-30 -147
-36 -3 c-34 -3 -38 -7 -47 -42 -11 -46 -9 -50 31 -50 35 0 36 22 -18 -235 -20
-93 -45 -215 -56 -270 -23 -118 -73 -229 -124 -274 -30 -26 -44 -31 -85 -31
-68 0 -90 22 -90 92 0 28 7 77 15 107 7 31 24 97 35 146 12 50 29 119 37 154
21 84 21 224 1 271 -26 61 -66 98 -121 115 -108 32 -232 12 -304 -50 -23 -19
-44 -35 -48 -35 -8 0 -1 54 10 83 7 16 -4 17 -148 17 -86 0 -158 -4 -161 -9
-6 -10 -30 -113 -46 -201 -17 -92 -21 -96 -98 -115 -108 -26 -116 -22 -124 53
-12 111 -53 205 -102 237 -44 29 -130 55 -181 55 -61 0 -175 -29 -235 -60 -74
-37 -188 -163 -242 -266 -25 -49 -54 -114 -62 -144 -27 -89 -56 -231 -56 -270
0 -28 -8 -43 -32 -67 -91 -84 -195 -130 -319 -140 -158 -12 -245 39 -284 167
-24 77 -26 273 -6 405 72 452 262 794 444 795 83 0 127 -50 127 -145 0 -67
-20 -119 -62 -162 -26 -27 -29 -35 -19 -47 34 -40 161 -47 203 -10 37 33 60
100 60 174 0 154 -90 253 -258 286 -81 15 -119 16 -200 4z m1018 -677 c9 -8
20 -35 24 -59 6 -40 4 -46 -24 -72 -52 -49 -54 -121 -4 -174 l25 -27 -18 -88
c-34 -169 -128 -326 -212 -354 -47 -15 -99 4 -119 44 -14 25 -16 53 -11 156
15 352 213 688 339 574z m2677 -2 c40 -38 40 -61 -3 -254 -19 -83 -39 -179
-46 -212 -26 -141 -44 -191 -89 -238 -57 -62 -138 -76 -188 -33 -27 23 -28 28
-31 134 -6 182 51 389 141 516 60 84 80 97 178 115 4 0 21 -12 38 -28z"></path>
</g>
</svg>