 <svg version="1.0" xmlns="http://www.w3.org/2000/svg" width="700.000000pt" height="241.000000pt" viewBox="0 0 700.000000 241.000000" preserveAspectRatio="xMidYMid meet">
<metadata>
Created by potrace 1.12, written by Peter Selinger 2001-2015
</metadata>
<g transform="translate(0.000000,241.000000) scale(0.100000,-0.100000)" fill="#000000" stroke="none">
<path d="M1055 2054 c-11 -3 -55 -14 -98 -25 -149 -37 -315 -139 -406 -248
-123 -147 -135 -353 -24 -409 21 -11 60 -23 87 -27 46 -7 49 -6 41 11 -14 35
-18 174 -5 237 43 221 250 368 519 367 89 0 143 -21 184 -69 53 -64 59 -170
16 -286 -24 -66 -116 -166 -173 -190 -38 -16 -82 -20 -90 -7 -2 4 9 71 25 147
39 183 59 284 59 297 0 11 -46 6 -189 -18 -46 -8 -87 -14 -91 -14 -5 0 -18
-44 -29 -97 -12 -54 -33 -147 -46 -208 -14 -60 -41 -186 -61 -280 -20 -93 -47
-222 -60 -285 -49 -228 -82 -395 -79 -398 2 -2 66 -4 142 -4 l138 0 16 79 c23
108 65 304 83 388 9 39 26 119 39 180 23 107 24 109 55 117 44 12 106 -7 131
-39 33 -41 29 -154 -10 -295 -100 -356 -93 -428 38 -459 41 -9 211 7 227 22 6
5 -1 17 -17 29 -59 46 -56 117 17 394 61 235 47 345 -52 403 l-45 27 24 15
c61 40 111 98 146 169 33 66 38 84 38 151 0 153 -79 249 -250 303 -59 19 -256
33 -300 22z"></path>
<path d="M6222 1878 c-49 -101 -87 -186 -85 -190 2 -5 35 -8 72 -8 l68 0 33
53 c19 28 71 110 117 180 46 70 83 132 83 138 0 5 -43 9 -99 9 l-100 0 -89
-182z"></path>
<path d="M2895 1603 c-205 -29 -188 -22 -203 -73 -63 -211 -210 -533 -260
-569 -17 -12 -42 -45 -56 -74 -47 -99 -181 -178 -306 -181 -111 -2 -146 37
-151 169 l-4 80 67 7 c210 20 397 212 398 408 0 82 -29 145 -80 175 -30 17
-53 20 -151 20 -116 0 -117 0 -195 -40 -63 -32 -90 -54 -135 -107 -132 -158
-209 -390 -197 -596 6 -101 25 -153 75 -204 132 -135 418 -106 605 61 l56 51
25 -53 c29 -63 72 -100 151 -127 120 -43 298 -7 398 78 18 16 53 40 78 54 25
14 66 44 92 67 25 23 51 41 57 41 6 0 11 -17 11 -37 0 -61 19 -112 56 -153 93
-102 268 -87 382 34 27 28 51 58 53 65 7 20 29 4 29 -20 0 -51 60 -118 126
-139 78 -26 220 14 293 83 l33 32 -5 -35 c-3 -19 -7 -43 -9 -54 -3 -17 6 -18
142 -18 l145 0 6 39 c28 164 134 645 153 686 31 68 73 107 124 114 33 4 42 2
56 -18 29 -41 22 -82 -94 -629 -17 -80 -32 -155 -33 -168 l-2 -23 138 -1 c76
0 141 2 143 5 3 3 29 123 59 268 92 450 87 434 129 496 75 109 176 92 176 -31
0 -51 -28 -210 -55 -316 -25 -97 -36 -217 -24 -268 22 -102 97 -162 209 -170
95 -7 222 55 272 133 13 19 26 35 30 35 4 0 14 -15 22 -33 45 -108 229 -165
383 -119 79 24 145 68 173 115 26 41 62 138 55 145 -3 3 -18 -4 -33 -15 -56
-41 -117 -66 -177 -71 -55 -4 -64 -2 -93 23 -38 32 -55 82 -50 155 l3 55 65 7
c95 11 213 71 281 145 83 92 126 209 112 309 -14 103 -86 154 -218 154 -92 0
-167 -18 -228 -53 -97 -57 -211 -212 -257 -347 -25 -73 -60 -245 -60 -291 0
-35 -29 -96 -59 -123 -12 -11 -41 -21 -70 -24 -40 -3 -52 -1 -70 17 -31 31
-27 88 19 278 53 217 64 299 50 368 -22 107 -78 155 -189 163 -101 7 -163 -15
-238 -83 -34 -30 -64 -55 -67 -55 -3 0 -13 17 -21 37 -34 81 -88 113 -188 113
-80 0 -143 -21 -195 -65 -43 -37 -56 -37 -41 2 20 53 20 53 -130 53 -82 0
-142 -4 -146 -10 -3 -5 -15 -54 -25 -107 -22 -109 -71 -348 -95 -463 -21 -100
-60 -184 -102 -220 -64 -56 -163 -33 -163 39 0 15 11 77 24 137 13 60 36 168
51 239 14 72 35 171 45 220 11 50 22 107 26 128 l6 38 -143 -3 -144 -3 -31
-155 c-18 -85 -41 -198 -52 -250 -12 -52 -30 -136 -41 -187 -24 -109 -47 -159
-96 -201 -67 -60 -135 -35 -135 49 0 20 9 81 21 135 11 55 29 140 40 189 62
296 85 416 81 420 -6 6 -282 7 -282 1 0 -5 -33 -164 -65 -311 -15 -66 -33
-154 -41 -195 -28 -143 -30 -147 -96 -195 -33 -25 -64 -43 -68 -40 -5 3 -6 30
-3 60 3 30 1 95 -5 143 -13 97 -31 363 -34 490 -1 46 -6 89 -12 96 -9 10 -29
10 -101 -1z m-679 -158 c24 -37 14 -135 -20 -204 -39 -77 -110 -144 -179 -170
-70 -25 -77 -26 -77 -4 0 35 53 190 87 256 40 75 112 147 149 147 14 0 30 -10
40 -25z m4060 0 c24 -37 14 -139 -20 -209 -36 -74 -120 -150 -188 -170 -29 -8
-57 -11 -61 -7 -20 20 64 232 130 332 27 41 77 79 105 79 10 0 25 -11 34 -25z
m-3544 -216 c3 -52 10 -166 14 -254 8 -181 3 -202 -60 -250 -39 -30 -116 -42
-158 -26 -32 12 -70 67 -66 96 3 17 9 19 41 17 77 -7 127 90 75 145 l-21 23
56 119 c31 65 64 144 74 175 10 30 23 54 28 53 6 -2 13 -46 17 -98z"></path>
</g>
</svg>