 <svg version="1.0" xmlns="http://www.w3.org/2000/svg" width="700.000000pt" height="300.000000pt" viewBox="0 0 700.000000 300.000000" preserveAspectRatio="xMidYMid meet">
<metadata>
Created by potrace 1.12, written by Peter Selinger 2001-2015
</metadata>
<g transform="translate(0.000000,300.000000) scale(0.100000,-0.100000)" fill="#000000" stroke="none">
<path d="M1810 2481 c-199 -64 -429 -274 -645 -591 l-58 -85 -101 3 c-182 6
-325 -38 -421 -129 -84 -80 -107 -173 -60 -245 31 -47 134 -70 188 -43 66 34
84 83 50 140 -17 28 -17 29 11 58 16 16 51 39 79 51 57 25 167 39 167 22 0 -6
-27 -60 -59 -121 -105 -195 -186 -394 -243 -599 -27 -100 -32 -134 -33 -232 0
-104 2 -119 24 -153 36 -58 86 -86 182 -102 87 -14 112 -8 89 19 -34 42 -18
255 37 471 14 55 29 117 34 138 36 148 202 575 227 585 31 12 271 -53 300 -82
11 -10 8 -35 -16 -137 -16 -68 -35 -155 -41 -194 -7 -38 -16 -83 -21 -100 -6
-16 -22 -88 -36 -160 -14 -71 -32 -161 -40 -200 -8 -38 -14 -71 -14 -73 0 -1
75 -1 167 0 l168 3 16 65 c9 36 31 135 48 220 18 85 41 196 53 245 11 50 28
131 38 180 10 50 32 155 50 235 17 80 40 186 50 235 10 50 32 155 49 235 41
185 62 291 64 310 5 43 -199 64 -303 31z m-70 -179 c0 -15 -5 -43 -10 -62 -6
-19 -24 -100 -40 -180 -67 -320 -77 -364 -88 -368 -6 -2 -22 4 -35 13 -13 8
-71 26 -128 39 -69 15 -105 28 -107 38 -4 19 73 158 156 283 64 95 218 265
241 265 6 0 11 -12 11 -28z"></path>
<path d="M2496 2364 c-191 -26 -179 -21 -192 -89 -20 -103 -64 -306 -74 -344
-5 -20 -18 -81 -29 -136 -11 -55 -31 -154 -46 -220 -28 -131 -81 -380 -97
-460 -6 -27 -8 -89 -6 -137 4 -74 8 -93 34 -134 78 -128 244 -173 445 -123
108 27 163 57 239 133 128 126 201 267 236 461 26 139 28 223 9 328 -30 168
-102 253 -222 264 -83 8 -145 -3 -188 -33 -38 -25 -61 -24 -49 5 3 9 28 117
54 241 26 124 49 232 51 240 5 20 -41 22 -165 4z m227 -644 c45 -36 62 -101
61 -230 -2 -195 -74 -407 -170 -501 -44 -43 -46 -44 -114 -44 -89 0 -115 21
-114 93 1 70 127 644 147 670 27 34 151 42 190 12z"></path>
<path d="M5805 2274 c-55 -8 -125 -18 -155 -22 l-55 -7 -23 -105 c-12 -58 -28
-132 -35 -165 l-13 -60 -39 0 c-37 0 -39 -2 -47 -40 -12 -54 -5 -66 34 -63 37
3 37 8 13 -97 -21 -92 -36 -165 -80 -375 -40 -191 -87 -309 -145 -365 -26 -25
-40 -30 -94 -33 -56 -4 -67 -1 -86 18 -19 19 -22 30 -17 79 3 31 17 108 31
171 14 63 32 147 40 185 8 39 28 133 45 210 28 133 61 297 61 306 0 2 -75 3
-167 2 l-168 -2 -18 -78 c-9 -43 -30 -143 -47 -223 -26 -129 -42 -205 -94
-441 -19 -86 -55 -158 -101 -197 -30 -27 -44 -32 -84 -32 -58 0 -72 13 -78 73
-5 44 -2 64 48 297 17 80 39 186 49 235 10 50 30 146 45 215 15 69 27 131 28
138 2 10 -34 13 -168 13 l-169 1 -17 -84 c-41 -201 -48 -231 -56 -238 -13 -12
-104 -39 -155 -46 -55 -8 -52 -13 -65 106 -22 199 -129 290 -327 277 -269 -16
-459 -201 -567 -552 -33 -106 -34 -116 -34 -275 0 -155 1 -168 25 -215 40 -83
99 -131 194 -160 136 -41 253 -28 379 44 155 89 287 316 318 546 15 116 14
115 42 115 13 0 56 11 95 24 75 26 89 23 73 -16 -6 -13 -18 -61 -26 -108 -9
-47 -25 -128 -35 -180 -38 -189 -19 -309 57 -381 88 -83 213 -91 350 -21 39
20 153 134 153 153 0 5 7 9 15 9 9 0 15 -9 15 -22 0 -13 9 -41 19 -63 51 -110
178 -152 315 -105 91 31 154 70 207 128 28 30 51 53 53 51 1 -2 8 -23 15 -47
17 -59 71 -117 128 -136 92 -32 175 -14 245 51 34 32 93 142 82 153 -5 5 -29
10 -53 12 -34 2 -48 9 -65 31 -20 27 -20 29 -4 120 9 51 31 157 48 237 47 214
91 420 99 460 l7 35 66 -2 c75 -3 83 3 90 67 l3 35 -66 -3 c-73 -4 -88 5 -71
41 16 35 73 317 67 327 -7 12 -2 12 -130 -6z m-2013 -495 c22 -12 48 -66 48
-102 0 -13 -9 -32 -21 -43 -58 -53 -65 -151 -14 -204 l28 -29 -23 -98 c-67
-284 -195 -433 -319 -368 -44 22 -56 64 -53 185 9 355 212 735 354 659z"></path>
</g>
</svg>