 <svg version="1.0" xmlns="http://www.w3.org/2000/svg" width="700.000000pt" height="295.000000pt" viewBox="0 0 700.000000 295.000000" preserveAspectRatio="xMidYMid meet">
<metadata>
Created by potrace 1.12, written by Peter Selinger 2001-2015
</metadata>
<g transform="translate(0.000000,295.000000) scale(0.100000,-0.100000)" fill="#000000" stroke="none">
<path d="M1180 2505 c-282 -44 -510 -214 -631 -472 -62 -132 -83 -232 -83
-403 -1 -168 21 -267 80 -367 81 -137 190 -198 354 -198 126 0 199 27 282 103
32 30 61 52 64 49 3 -2 -4 -45 -16 -93 -11 -49 -25 -109 -30 -134 -88 -403
-106 -452 -186 -518 -74 -61 -175 -47 -223 31 -30 49 -30 151 2 197 55 81 137
99 216 47 23 -15 46 -25 50 -22 21 12 23 84 3 128 -42 94 -153 130 -271 87
-110 -40 -163 -93 -202 -206 -55 -154 27 -321 190 -386 47 -19 74 -23 166 -22
105 0 113 2 188 37 105 49 169 115 234 243 47 91 123 302 123 340 0 9 11 62
24 118 14 55 34 146 45 201 12 55 37 172 56 260 20 88 39 175 42 193 l6 33
-134 -3 -134 -3 -26 -91 c-60 -202 -154 -339 -264 -384 -111 -45 -193 -8 -255
115 l-35 70 0 145 c0 87 5 167 13 200 51 207 130 360 247 476 80 79 158 117
245 122 121 7 175 -36 174 -137 0 -71 -18 -123 -57 -168 -24 -27 -28 -39 -20
-51 30 -48 127 -66 197 -37 55 23 106 121 106 203 0 49 -39 141 -79 185 -52
58 -162 107 -254 113 -40 3 -85 6 -102 8 -16 1 -64 -3 -105 -9z"></path>
<path d="M6145 2003 c-11 -3 -76 -13 -144 -22 l-124 -16 -15 -45 c-27 -84
-110 -305 -145 -385 -69 -161 -114 -239 -155 -272 -24 -19 -51 -55 -66 -87
-59 -124 -231 -216 -378 -203 -110 10 -142 53 -143 192 l0 90 63 7 c131 14
245 71 333 166 168 179 180 426 26 508 -50 26 -210 31 -284 8 -154 -47 -263
-143 -356 -315 -64 -117 -117 -316 -117 -439 0 -47 -6 -64 -35 -107 -40 -60
-77 -83 -133 -83 -56 0 -83 25 -88 80 -5 43 7 102 69 373 67 290 37 422 -111
477 -120 46 -268 5 -366 -100 -26 -27 -50 -50 -55 -50 -4 0 -13 18 -20 40 -29
98 -110 145 -238 138 -88 -4 -162 -35 -222 -91 l-34 -32 7 43 c4 24 7 49 9 55
1 9 -41 13 -156 15 -182 3 -164 14 -192 -118 -29 -134 -85 -403 -105 -503 -46
-233 -111 -337 -212 -337 -103 0 -114 49 -64 275 19 88 39 185 45 215 6 30 29
141 51 245 23 105 42 197 43 205 2 13 -22 15 -163 15 l-165 0 -5 -33 c-6 -40
-14 -41 -46 -3 -36 43 -81 54 -188 48 -141 -8 -246 -66 -344 -190 -96 -120
-156 -254 -191 -427 -54 -263 -7 -443 136 -527 60 -35 173 -43 255 -19 64 18
149 82 192 145 16 22 32 39 36 36 4 -3 11 -20 14 -39 10 -53 61 -115 114 -138
38 -17 59 -20 127 -16 93 6 156 30 222 84 24 20 47 34 50 30 3 -3 1 -23 -5
-45 -7 -21 -12 -43 -12 -50 0 -15 316 -16 325 0 4 5 23 88 42 182 19 95 45
226 59 292 64 318 88 383 162 445 43 35 99 41 124 13 35 -41 30 -92 -42 -428
-22 -104 -47 -226 -55 -270 -8 -44 -24 -115 -34 -158 -14 -58 -16 -80 -7 -83
7 -3 81 -3 166 -2 l155 3 7 40 c4 22 13 67 18 100 6 33 19 96 29 140 10 44 24
107 30 140 7 33 21 98 31 145 10 47 24 111 29 143 33 185 164 305 242 221 22
-23 24 -34 23 -107 -1 -49 -13 -128 -29 -197 -88 -370 -86 -491 9 -578 55 -51
76 -57 196 -57 79 0 103 4 143 23 47 24 142 109 163 147 10 18 13 17 32 -20
28 -54 77 -100 137 -126 62 -27 203 -37 301 -20 106 19 257 102 327 180 31 36
43 34 52 -9 9 -42 87 -124 142 -151 62 -30 210 -38 306 -15 138 32 244 111
289 214 30 67 33 187 13 447 -10 121 -20 294 -24 385 l-6 165 -25 2 c-14 0
-34 -1 -45 -4z m-835 -188 c20 -22 22 -31 18 -94 -10 -134 -103 -271 -220
-326 -57 -27 -108 -33 -108 -12 1 29 40 158 69 227 80 186 179 271 241 205z
m-2875 -21 c29 -32 32 -71 10 -153 -8 -31 -26 -114 -40 -186 -53 -257 -63
-303 -75 -326 -61 -118 -171 -163 -242 -100 l-33 29 0 139 c0 119 4 152 28
238 29 106 80 224 125 289 62 90 176 125 227 70z m3467 -245 c4 -68 12 -157
18 -197 17 -120 13 -247 -9 -290 -34 -67 -95 -102 -176 -102 -69 0 -108 20
-129 68 -26 56 -18 72 33 65 50 -7 87 15 107 63 17 39 10 75 -17 100 -10 9
-19 22 -19 29 0 7 24 63 54 126 29 63 66 149 81 192 16 43 33 76 39 74 7 -2
14 -52 18 -128z"></path>
</g>
</svg>