 <svg version="1.0" xmlns="http://www.w3.org/2000/svg" width="700.000000pt" height="312.000000pt" viewBox="0 0 700.000000 312.000000" preserveAspectRatio="xMidYMid meet">
<metadata>
Created by potrace 1.12, written by Peter Selinger 2001-2015
</metadata>
<g transform="translate(0.000000,312.000000) scale(0.100000,-0.100000)" fill="#000000" stroke="none">
<path d="M1855 2545 c-4 -15 -24 -109 -40 -190 -7 -38 -23 -113 -35 -165 -28
-124 -60 -279 -74 -357 -6 -34 -14 -64 -18 -68 -3 -3 -91 -6 -195 -6 l-188 0
2 23 c1 21 9 58 63 308 11 52 29 136 40 185 10 50 27 129 38 177 10 48 17 90
14 93 -12 11 -208 4 -280 -11 -128 -26 -210 -58 -372 -145 -103 -56 -271 -226
-318 -322 -80 -165 -66 -325 34 -402 68 -52 224 -71 187 -23 -53 70 -36 289
35 438 27 57 54 93 111 150 71 69 175 138 185 122 5 -8 -13 -106 -48 -267 -15
-66 -31 -140 -36 -165 -5 -25 -21 -99 -35 -165 -43 -198 -56 -256 -70 -331 -7
-39 -18 -89 -24 -111 -6 -21 -18 -72 -26 -113 -26 -128 -44 -212 -59 -285 -8
-38 -21 -97 -29 -130 -9 -33 -18 -85 -22 -115 -4 -30 -12 -61 -18 -68 -5 -7
-7 -15 -4 -18 7 -8 364 -7 376 0 5 3 12 30 16 59 3 28 15 86 25 127 11 41 24
100 29 130 6 30 20 98 31 150 12 52 30 136 41 185 10 50 23 113 29 140 5 28
15 79 23 115 l14 65 189 5 c104 3 192 3 196 0 4 -3 3 -21 -2 -40 -5 -19 -19
-80 -30 -135 -34 -164 -51 -247 -66 -310 -7 -33 -25 -116 -39 -185 -14 -69
-35 -165 -46 -214 -11 -49 -18 -91 -15 -94 3 -3 88 -4 188 -4 l183 1 7 33 c4
18 16 76 27 128 11 52 30 138 41 190 11 52 27 127 35 165 34 167 87 414 115
545 24 109 39 183 69 325 11 55 30 145 42 200 12 55 27 129 34 165 7 36 20 98
29 139 9 41 14 76 12 78 -9 10 -369 8 -371 -2z"></path>
<path d="M2685 1901 c-120 -34 -192 -78 -282 -175 -163 -174 -262 -427 -280
-715 -6 -108 6 -178 48 -261 44 -88 103 -135 213 -169 123 -38 273 -24 388 35
188 97 349 364 380 629 5 50 13 97 17 105 5 8 35 19 72 25 35 6 82 19 103 28
22 10 41 16 42 14 2 -2 -5 -44 -16 -93 -11 -49 -27 -123 -35 -164 -14 -74 -23
-117 -86 -410 -17 -80 -31 -151 -32 -158 -2 -11 36 -14 186 -15 208 -2 187 -9
200 63 6 30 61 298 81 390 8 36 24 110 36 165 65 310 73 333 138 414 59 73
134 91 178 44 24 -25 25 -33 21 -103 -3 -41 -11 -106 -20 -145 -61 -285 -96
-456 -142 -685 -9 -47 -22 -95 -28 -107 -6 -13 -8 -26 -4 -29 3 -3 90 -7 192
-8 178 -1 186 0 190 19 9 42 38 183 50 245 28 141 46 227 55 261 6 19 17 71
25 115 45 241 65 303 122 386 27 40 93 78 135 78 43 0 75 -40 83 -102 8 -66
-4 -153 -49 -353 -72 -313 -78 -378 -47 -473 39 -122 142 -192 279 -192 142 0
321 97 362 198 14 32 24 27 45 -19 25 -54 103 -123 173 -151 49 -19 75 -23
182 -23 123 0 172 9 244 47 41 21 108 81 131 118 33 53 85 189 74 196 -5 3
-23 -6 -41 -21 -74 -62 -208 -111 -283 -103 -98 11 -139 74 -140 213 l0 90 60
7 c305 39 545 278 545 545 0 136 -50 210 -164 246 -115 35 -299 11 -415 -55
-61 -34 -170 -138 -218 -209 -103 -150 -192 -421 -193 -587 0 -93 -47 -184
-111 -218 -46 -23 -123 -18 -156 10 -48 41 -40 106 62 517 41 165 42 315 3
399 -22 47 -38 64 -103 108 -38 25 -47 27 -155 27 -107 0 -119 -2 -175 -29
-37 -18 -85 -54 -123 -94 -35 -35 -67 -60 -72 -56 -4 5 -13 25 -19 46 -20 61
-81 121 -143 141 -131 41 -276 6 -382 -92 l-38 -36 6 63 7 62 -185 0 -184 0
-7 -32 c-3 -18 -15 -71 -25 -118 -11 -47 -25 -114 -32 -149 l-13 -63 -60 -19
c-33 -11 -86 -22 -117 -25 l-58 -7 0 43 c0 23 -9 82 -21 130 -43 183 -145 262
-336 259 -43 -1 -105 -9 -138 -18z m3336 -140 c22 -18 24 -26 23 -111 -1 -86
-3 -95 -43 -173 -66 -129 -199 -233 -302 -236 -14 -1 -28 1 -31 5 -3 3 2 28
12 57 10 29 29 87 43 130 29 88 105 232 148 281 30 35 82 65 110 66 9 0 27 -9
40 -19z m-3109 -12 c25 -13 48 -67 48 -112 0 -25 -7 -38 -30 -55 -35 -26 -55
-89 -45 -146 6 -43 29 -76 52 -76 17 0 16 -11 -3 -106 -43 -214 -137 -389
-236 -440 -58 -30 -135 -8 -163 46 -49 95 -19 357 67 587 87 232 213 354 310
302z"></path>
</g>
</svg>