 <svg version="1.0" xmlns="http://www.w3.org/2000/svg" width="700.000000pt" height="607.000000pt" viewBox="0 0 700.000000 607.000000" preserveAspectRatio="xMidYMid meet">
<metadata>
Created by potrace 1.12, written by Peter Selinger 2001-2015
</metadata>
<g transform="translate(0.000000,607.000000) scale(0.100000,-0.100000)" fill="#000000" stroke="none">
<path d="M3455 4964 c-55 -7 -180 -38 -190 -46 -5 -4 -15 -8 -22 -8 -12 0
-113 -43 -143 -61 -8 -5 -28 -15 -45 -22 -98 -45 -296 -200 -484 -381 -132
-126 -365 -397 -466 -541 -19 -27 -49 -68 -65 -90 -17 -22 -69 -97 -116 -168
-88 -131 -116 -154 -150 -126 -19 15 -340 15 -394 -1 -19 -5 -58 -10 -87 -10
-28 0 -54 -4 -57 -9 -3 -5 -23 -12 -43 -16 -105 -19 -255 -82 -363 -151 -121
-77 -195 -169 -249 -307 -14 -37 -14 -159 1 -211 17 -62 72 -123 137 -154 49
-24 68 -27 156 -27 115 1 165 18 228 77 29 28 37 43 38 74 3 82 -3 120 -27
155 -13 19 -24 44 -24 55 0 34 93 128 157 159 78 38 91 43 145 50 26 3 50 10
53 16 4 5 51 9 106 9 80 0 101 -3 106 -15 3 -9 -1 -23 -9 -33 -8 -9 -18 -24
-22 -32 -3 -8 -16 -31 -28 -50 -35 -57 -278 -542 -278 -556 0 -7 -6 -25 -14
-41 -25 -50 -63 -136 -90 -208 -15 -38 -34 -82 -42 -97 -8 -14 -14 -33 -14
-42 0 -9 -4 -24 -9 -34 -11 -19 -78 -223 -105 -317 -9 -33 -21 -68 -27 -77 -5
-10 -9 -33 -9 -52 0 -18 -7 -47 -15 -62 -8 -16 -15 -44 -15 -61 0 -18 -4 -52
-10 -75 -21 -98 -28 -280 -14 -383 25 -185 19 -171 103 -255 104 -105 156
-127 346 -150 55 -7 115 -15 132 -17 41 -6 53 16 31 61 -43 87 -56 205 -38
341 6 50 16 131 20 180 5 50 16 119 25 155 9 36 19 85 21 110 3 25 9 54 13 65
9 22 29 110 37 165 3 19 12 49 20 67 8 17 14 43 14 58 0 14 5 36 11 47 6 12
19 53 29 92 22 86 57 199 76 244 8 18 14 44 14 57 0 13 4 26 9 29 5 3 11 18
14 33 7 38 39 128 63 176 8 16 14 35 14 43 0 14 3 22 33 82 9 19 17 44 17 57
0 12 7 28 15 35 8 7 15 20 15 29 0 10 11 41 25 69 14 29 25 59 25 67 0 9 11
33 25 55 14 22 25 44 25 49 0 6 6 25 14 43 8 18 21 49 30 70 9 20 16 43 16 51
0 30 23 35 110 27 94 -9 194 -27 225 -39 11 -5 38 -13 60 -18 60 -15 133 -42
201 -74 33 -16 65 -29 72 -29 24 0 34 -39 18 -72 -9 -17 -16 -46 -16 -64 0
-18 -5 -45 -11 -61 -7 -15 -16 -48 -20 -73 -20 -112 -31 -168 -39 -200 -5 -19
-21 -91 -35 -160 -15 -69 -33 -150 -41 -181 -8 -30 -14 -67 -14 -82 0 -14 -4
-28 -9 -31 -4 -3 -11 -35 -14 -71 -3 -36 -11 -74 -17 -84 -5 -11 -10 -38 -10
-61 0 -23 -4 -49 -9 -59 -10 -19 -45 -174 -62 -276 -6 -33 -14 -64 -20 -70 -5
-5 -9 -28 -9 -52 0 -24 -6 -59 -14 -77 -8 -19 -16 -60 -18 -92 l-3 -59 350 0
350 0 6 40 c7 42 17 91 44 210 9 39 19 88 22 110 3 22 11 49 16 60 6 11 15 45
19 75 12 89 32 188 41 196 4 4 7 29 7 54 0 26 7 64 15 83 8 20 15 52 15 72 0
19 4 43 10 53 10 17 43 168 60 269 4 28 12 58 16 65 5 7 12 36 16 63 4 28 14
84 23 125 8 41 20 102 26 134 5 32 14 67 19 77 6 10 10 30 10 45 0 15 4 41 10
58 22 73 40 155 40 184 0 17 4 33 9 36 4 3 11 33 15 65 4 33 11 63 16 66 6 4
10 30 10 58 1 29 7 63 15 77 8 14 14 44 15 67 0 23 4 52 9 65 5 13 17 61 26
108 9 47 21 94 25 105 5 11 11 34 13 50 9 56 29 150 39 183 11 36 25 113 36
202 4 30 12 62 17 70 5 8 13 38 17 65 4 28 14 82 23 120 9 39 19 86 22 105 3
19 9 40 13 45 4 6 11 38 15 73 4 34 11 65 16 68 16 10 10 54 -8 60 -10 3 -27
9 -38 14 -68 27 -144 40 -270 44 -77 2 -153 2 -170 0z m-286 -362 c7 -13 6
-23 -1 -30 -7 -7 -15 -36 -20 -64 -4 -29 -12 -82 -17 -117 -5 -34 -14 -68 -20
-74 -6 -6 -11 -31 -11 -55 0 -24 -4 -51 -10 -61 -5 -10 -14 -45 -19 -77 -6
-32 -22 -106 -37 -164 -14 -58 -29 -130 -33 -160 -3 -30 -11 -62 -16 -70 -5
-8 -13 -40 -17 -70 -8 -64 -23 -148 -37 -205 -5 -22 -15 -66 -22 -98 -17 -80
-28 -87 -95 -54 -30 15 -63 27 -74 27 -10 0 -22 5 -25 10 -3 6 -18 10 -33 10
-15 0 -40 7 -56 15 -15 8 -40 15 -55 15 -14 1 -37 7 -51 15 -14 8 -44 14 -67
15 -23 0 -45 5 -48 10 -3 6 -22 10 -41 10 -42 0 -74 15 -74 35 0 8 18 48 40
90 22 41 58 110 81 153 22 42 46 84 53 92 6 8 20 31 30 50 11 19 45 73 75 120
31 47 58 89 60 94 31 73 271 358 371 441 40 33 86 72 104 87 37 32 52 35 65
10z"></path>
<path d="M5515 4963 c-75 -5 -235 -34 -241 -44 -3 -5 -18 -9 -33 -9 -15 0 -36
-7 -47 -15 -10 -8 -26 -15 -35 -15 -30 0 -184 -85 -284 -156 -116 -84 -259
-229 -337 -344 -10 -14 -40 -56 -67 -95 -28 -38 -56 -81 -64 -95 -8 -14 -37
-65 -65 -114 -29 -49 -52 -90 -52 -92 0 -1 -18 -42 -40 -89 -22 -47 -40 -90
-40 -96 0 -5 -11 -32 -25 -61 -14 -28 -25 -60 -25 -69 0 -10 -4 -20 -9 -23 -5
-4 -12 -24 -16 -46 -4 -22 -11 -42 -16 -46 -5 -3 -9 -20 -9 -37 0 -18 -7 -41
-15 -51 -8 -11 -15 -34 -15 -52 0 -18 -4 -35 -9 -38 -4 -3 -11 -27 -15 -53 -3
-26 -11 -61 -16 -78 -18 -57 -53 -220 -61 -285 -4 -36 -12 -90 -18 -120 -5
-30 -10 -90 -10 -132 -1 -42 -5 -80 -11 -83 -12 -8 -14 -481 -1 -489 4 -3 11
-44 15 -91 17 -211 81 -395 193 -556 31 -44 114 -122 178 -166 44 -30 146 -83
160 -83 7 0 26 -7 41 -15 16 -8 39 -15 51 -15 12 0 25 -4 28 -10 3 -5 22 -10
41 -10 20 0 44 -5 55 -11 77 -41 581 -24 671 22 10 5 28 9 40 9 13 0 36 7 52
15 15 8 37 15 47 15 10 0 35 7 56 16 94 41 163 76 168 84 4 6 13 10 22 10 9 0
31 11 49 25 18 14 36 25 41 26 8 0 68 43 175 125 105 80 242 242 314 369 50
88 65 122 67 153 2 29 -3 38 -28 53 -53 31 -68 25 -125 -50 -44 -58 -226 -221
-246 -221 -3 0 -18 -8 -32 -19 -48 -34 -142 -81 -162 -81 -10 0 -21 -4 -24 -9
-8 -12 -169 -61 -246 -74 -79 -14 -287 -14 -355 0 -49 11 -96 25 -145 47 -32
14 -126 84 -134 99 -4 7 -15 26 -26 42 -27 41 -80 154 -80 171 0 8 -4 22 -9
32 -23 44 -34 165 -38 406 -2 171 0 270 7 290 6 17 14 77 17 134 3 56 10 105
15 108 4 3 8 24 8 47 0 46 16 126 62 312 16 66 35 141 41 167 7 25 15 50 20
54 4 4 7 21 7 37 0 16 6 41 14 55 7 15 22 54 31 87 10 33 22 64 27 70 4 5 8
15 8 23 0 7 11 37 23 65 13 29 32 72 42 97 28 72 109 230 151 295 58 89 62 97
85 138 11 22 61 79 110 127 87 86 139 120 253 165 42 16 211 21 220 6 3 -4 18
-11 33 -14 85 -18 163 -156 163 -290 0 -44 -20 -146 -36 -184 -8 -17 -14 -36
-14 -41 0 -30 -116 -192 -137 -192 -7 0 -17 -9 -24 -21 -20 -38 43 -87 149
-115 75 -20 200 -18 249 4 37 16 133 93 133 105 0 4 11 31 25 61 14 30 25 64
25 76 0 12 5 30 10 40 14 27 15 246 1 300 -26 98 -45 156 -57 170 -6 8 -15 25
-19 38 -7 25 -153 172 -170 172 -6 0 -26 11 -45 23 -19 13 -44 26 -55 30 -11
3 -45 15 -75 27 -114 46 -326 67 -535 53z"></path>
</g>
</svg>