 <svg version="1.0" xmlns="http://www.w3.org/2000/svg" width="700.000000pt" height="262.000000pt" viewBox="0 0 700.000000 262.000000" preserveAspectRatio="xMidYMid meet">
<metadata>
Created by potrace 1.12, written by Peter Selinger 2001-2015
</metadata>
<g transform="translate(0.000000,262.000000) scale(0.100000,-0.100000)" fill="#000000" stroke="none">
<path d="M1525 2209 c-200 -66 -329 -185 -590 -543 -20 -28 -23 -29 -101 -27
-143 4 -278 -36 -354 -105 -54 -49 -70 -82 -70 -143 0 -74 28 -103 106 -108
98 -6 143 37 115 112 -16 45 -4 67 51 93 48 23 129 38 154 28 15 -6 15 -8 1
-24 -24 -26 -150 -293 -191 -404 -64 -173 -88 -286 -84 -393 2 -75 7 -99 24
-122 27 -38 96 -70 168 -78 l59 -7 -7 29 c-17 72 -16 126 3 243 36 209 107
440 214 695 l26 60 49 -1 c49 -2 207 -48 217 -64 5 -7 -13 -100 -70 -370 -30
-144 -65 -305 -72 -338 l-5 -23 143 3 144 3 22 100 c12 55 31 143 42 195 11
52 36 169 55 260 106 507 129 616 152 725 13 66 29 133 34 150 12 35 8 39 -52
54 -56 13 -142 13 -183 0z m-78 -161 c-8 -36 -58 -273 -81 -390 -12 -59 -24
-110 -28 -113 -4 -4 -31 2 -60 13 -29 11 -79 25 -110 32 -32 6 -60 16 -64 21
-8 13 73 159 142 255 63 90 171 204 192 204 10 0 13 -7 9 -22z"></path>
<path d="M5175 2207 c-182 -47 -318 -174 -425 -400 -99 -209 -146 -438 -137
-677 9 -249 72 -359 242 -421 48 -18 83 -23 175 -23 121 -1 193 15 292 65 66
33 164 106 188 139 26 37 40 38 40 5 0 -67 67 -158 130 -175 49 -14 138 -12
183 4 56 21 114 64 149 113 34 47 51 45 61 -6 8 -38 54 -91 94 -107 46 -20
140 -17 188 5 23 10 53 32 68 50 26 32 54 108 42 119 -3 3 -28 5 -55 3 -39 -2
-53 2 -70 19 -28 28 -27 41 43 370 31 146 64 298 72 339 9 41 14 80 11 88 -7
18 -259 19 -274 1 -5 -7 -26 -94 -45 -193 -59 -295 -86 -417 -102 -469 -33
-102 -87 -156 -155 -156 -26 0 -33 6 -47 38 -18 43 -24 4 67 442 33 162 62
306 63 320 l2 25 -140 0 -140 0 -17 -85 c-129 -631 -113 -572 -172 -628 -96
-91 -198 -132 -326 -132 -83 0 -126 12 -163 47 -49 46 -69 106 -75 220 -18
374 151 862 332 955 57 29 140 22 173 -16 33 -39 32 -128 -1 -194 -14 -27 -32
-54 -40 -61 -24 -20 -20 -31 19 -47 51 -21 117 -18 149 7 44 35 59 76 60 160
0 126 -48 195 -168 242 -64 25 -219 32 -291 14z"></path>
<path d="M2253 1719 c-29 -11 -66 -33 -84 -50 -37 -35 -53 -37 -43 -6 21 63
22 62 -131 62 l-140 0 -18 -90 c-10 -49 -48 -227 -84 -395 -61 -287 -103 -496
-103 -512 0 -5 63 -8 139 -8 153 0 142 -4 155 65 24 130 129 603 142 637 47
121 144 174 190 103 11 -17 15 -38 11 -67 -4 -41 -84 -434 -126 -625 -12 -51
-21 -97 -21 -103 0 -7 49 -10 142 -8 l143 3 6 35 c35 188 135 635 150 669 31
71 65 109 109 122 37 11 42 10 64 -10 46 -44 45 -74 -24 -401 -41 -198 -40
-278 5 -341 43 -62 83 -82 174 -87 104 -6 173 21 247 94 29 30 55 54 58 54 2
0 7 -12 11 -27 34 -136 254 -168 385 -56 40 35 56 31 41 -9 -12 -32 -25 -41
-101 -68 -133 -47 -214 -106 -241 -177 -16 -42 -14 -145 4 -178 19 -38 72 -87
117 -111 58 -31 169 -25 250 13 131 60 179 144 235 413 13 63 51 248 85 410
113 547 131 643 122 652 -5 5 -69 7 -143 6 l-134 -3 -21 -105 c-104 -519 -121
-587 -163 -650 -33 -50 -63 -69 -107 -70 -65 0 -76 58 -41 220 14 63 35 160
46 215 11 55 32 156 47 225 40 184 52 165 -105 168 -74 1 -138 -1 -143 -6 -4
-4 -17 -53 -28 -108 -10 -54 -35 -175 -55 -269 -19 -93 -40 -192 -45 -220 -14
-72 -70 -176 -110 -202 -47 -32 -102 -31 -129 3 -29 37 -27 66 23 286 56 241
61 282 46 355 -39 187 -290 220 -441 56 -21 -24 -43 -43 -48 -43 -5 0 -11 13
-14 29 -8 40 -54 91 -102 112 -53 24 -136 23 -202 -2z m1361 -1119 c-8 -30
-19 -72 -25 -93 -15 -58 -64 -107 -105 -107 -39 0 -84 37 -84 67 1 41 39 101
84 132 58 40 129 72 138 63 4 -4 0 -32 -8 -62z"></path>
</g>
</svg>