 <svg version="1.0" xmlns="http://www.w3.org/2000/svg" width="700.000000pt" height="229.000000pt" viewBox="0 0 700.000000 229.000000" preserveAspectRatio="xMidYMid meet">
<metadata>
Created by potrace 1.12, written by Peter Selinger 2001-2015
</metadata>
<g transform="translate(0.000000,229.000000) scale(0.100000,-0.100000)" fill="#000000" stroke="none">
<path d="M1091 1940 c-249 -53 -468 -208 -531 -377 -17 -45 -21 -74 -18 -130
5 -106 44 -149 146 -161 44 -5 45 -4 38 19 -15 53 -18 130 -7 195 32 186 162
320 341 354 68 13 195 13 242 0 45 -13 110 -83 126 -138 16 -53 15 -175 -2
-237 -37 -139 -122 -262 -214 -309 -37 -19 -89 -29 -95 -18 -3 4 3 46 14 93
55 240 109 513 102 520 -10 9 -250 -24 -262 -37 -10 -10 -31 -98 -105 -444
-26 -118 -71 -330 -102 -470 -65 -300 -62 -285 -46 -284 6 1 67 2 135 3 l123
1 26 118 c15 64 42 185 60 267 l33 150 65 6 c93 10 146 26 219 66 173 96 271
258 271 447 -1 222 -156 361 -415 371 -55 2 -120 0 -144 -5z"></path>
<path d="M3427 1856 c-69 -25 -97 -66 -97 -141 0 -108 89 -176 190 -146 47 14
97 69 106 116 20 109 -95 208 -199 171z"></path>
<path d="M5408 1761 c-64 -9 -121 -20 -126 -26 -5 -5 -19 -59 -32 -120 -13
-60 -27 -115 -32 -122 -5 -6 -22 -13 -36 -15 -23 -3 -27 -8 -30 -40 -3 -34 -1
-37 25 -40 15 -2 27 -7 26 -13 -2 -13 -47 -225 -83 -395 l-29 -135 -71 -67
c-93 -88 -143 -112 -246 -116 -79 -4 -83 -3 -115 26 -32 29 -34 34 -38 113 -4
105 12 196 57 324 39 112 83 187 132 228 39 33 66 32 92 -4 18 -23 18 -31 7
-93 -14 -80 -8 -91 52 -91 32 0 46 6 64 27 29 34 40 111 25 168 -24 91 -96
126 -238 117 -66 -4 -96 -11 -147 -36 -163 -81 -298 -315 -322 -559 -6 -62 -7
-64 -66 -117 -78 -71 -134 -97 -224 -103 -128 -8 -163 25 -163 156 l0 69 66
11 c98 16 186 62 253 131 93 94 131 203 110 314 -22 116 -131 162 -301 126
-159 -34 -300 -182 -363 -382 -29 -90 -58 -257 -49 -280 14 -38 -77 -159 -153
-204 -55 -32 -69 -23 -54 33 6 22 22 93 36 159 37 184 102 492 119 565 28 119
37 111 -116 108 l-133 -3 -12 -50 c-6 -27 -19 -85 -28 -128 -16 -75 -18 -79
-53 -94 -21 -9 -59 -16 -87 -17 l-50 -1 -6 55 c-11 98 -28 142 -73 186 -52 53
-104 68 -210 61 -60 -4 -93 -12 -140 -36 -203 -100 -347 -390 -334 -672 5
-109 25 -159 85 -208 54 -45 127 -64 231 -59 109 4 176 34 257 115 90 90 165
270 177 423 3 32 6 35 44 41 22 4 57 14 77 23 20 8 38 12 41 8 2 -4 -2 -34 -9
-67 -7 -33 -31 -148 -54 -255 -67 -317 -53 -285 -144 -325 -154 -66 -229 -148
-230 -253 -1 -96 56 -160 162 -183 93 -20 221 22 287 93 61 66 90 138 124 311
8 38 17 60 28 64 67 22 130 60 178 105 52 49 57 52 68 34 55 -94 119 -128 247
-134 157 -7 277 40 393 154 65 62 76 67 76 32 0 -50 63 -130 130 -163 46 -24
199 -32 271 -15 83 19 181 75 254 146 37 35 69 64 71 64 2 0 4 -17 4 -37 1
-54 31 -114 76 -148 34 -26 49 -30 114 -33 87 -4 161 18 230 71 71 53 72 54
78 37 3 -8 21 -30 41 -48 51 -47 123 -65 235 -60 113 5 191 37 259 106 82 84
95 149 78 387 -6 83 -16 231 -22 330 -7 99 -15 183 -18 188 -4 4 -65 -1 -136
-12 -127 -19 -155 -31 -155 -66 0 -26 -96 -269 -153 -388 -40 -84 -71 -135
-88 -148 -37 -26 -68 -79 -77 -131 -6 -33 -15 -48 -41 -65 -44 -30 -103 -31
-132 -2 -25 25 -23 69 10 214 12 50 37 167 56 260 47 225 42 215 110 215 46 0
55 3 55 18 0 9 3 27 6 40 6 21 3 22 -44 22 -28 0 -54 4 -57 10 -3 5 5 60 19
122 33 151 34 162 16 164 -8 1 -68 -6 -132 -15z m-1244 -393 c53 -75 -20 -258
-131 -328 -46 -29 -108 -48 -120 -36 -9 9 14 102 41 169 37 89 87 167 126 193
43 30 64 30 84 2z m-1272 -15 c30 -35 29 -75 -3 -111 -39 -44 -40 -107 -3
-151 l26 -31 -21 -82 c-42 -165 -131 -298 -200 -298 -85 0 -107 45 -98 195 11
165 86 371 167 454 33 34 47 41 78 41 25 0 45 -7 54 -17z m3018 -308 c16 -235
12 -296 -21 -331 -35 -38 -77 -56 -128 -57 -59 -1 -89 16 -107 59 -18 43 -12
55 26 47 25 -4 36 1 65 30 40 40 45 75 15 102 -26 24 -25 35 10 104 26 52 84
189 104 246 14 40 23 -9 36 -200z m-2838 -670 c-5 -46 -43 -137 -68 -162 -30
-30 -78 -31 -98 -1 -22 31 -20 59 7 98 22 33 133 103 152 96 6 -2 9 -15 7 -31z"></path>
<path d="M1745 1468 c-2 -7 -33 -155 -69 -328 -36 -173 -79 -379 -96 -458 -16
-78 -30 -148 -30 -155 0 -9 34 -11 131 -10 72 1 134 5 137 7 3 3 13 45 22 93
92 462 129 625 148 646 55 62 128 73 150 22 33 -77 36 -80 79 -83 56 -4 98 19
123 68 25 50 25 83 -1 137 -28 58 -66 77 -137 70 -55 -6 -109 -34 -163 -84
-33 -30 -45 -17 -29 32 6 19 9 39 5 45 -10 15 -265 13 -270 -2z"></path>
</g>
</svg>