 <svg version="1.0" xmlns="http://www.w3.org/2000/svg" width="700.000000pt" height="252.000000pt" viewBox="0 0 700.000000 252.000000" preserveAspectRatio="xMidYMid meet">
<metadata>
Created by potrace 1.12, written by Peter Selinger 2001-2015
</metadata>
<g transform="translate(0.000000,252.000000) scale(0.100000,-0.100000)" fill="#000000" stroke="none">
<path d="M1265 2214 c-218 -35 -432 -150 -550 -294 -82 -100 -100 -146 -100
-255 0 -100 15 -141 62 -172 29 -20 134 -44 145 -34 4 4 3 22 -2 41 -17 58
-12 199 9 273 44 161 183 285 359 323 80 16 212 18 267 3 56 -16 117 -81 144
-152 73 -197 -58 -520 -251 -616 -67 -34 -86 -38 -94 -18 -3 8 13 94 35 193
60 270 88 404 96 453 l7 44 -48 -7 c-27 -3 -94 -11 -149 -18 -55 -6 -103 -14
-107 -17 -8 -7 -12 -23 -47 -201 -12 -58 -36 -175 -55 -260 -81 -359 -186
-856 -186 -874 0 -4 69 -5 152 -4 l152 3 8 40 c4 22 23 117 43 210 19 94 43
206 52 250 9 44 20 85 25 91 4 6 43 14 85 17 204 16 385 139 472 320 54 111
65 160 59 270 -5 97 -28 159 -85 236 -35 46 -134 107 -211 131 -64 20 -227 33
-287 24z"></path>
<path d="M3804 2106 c-86 -38 -117 -156 -64 -244 33 -54 75 -74 147 -70 105 6
158 61 158 162 0 54 -4 68 -29 100 -16 21 -44 44 -62 52 -42 18 -109 17 -150
0z"></path>
<path d="M6040 2008 c-138 -20 -160 -28 -160 -57 0 -22 -40 -211 -51 -238 -6
-17 -17 -23 -39 -23 -32 0 -38 -7 -42 -55 -3 -26 1 -30 27 -35 18 -3 30 -12
29 -20 -2 -20 -103 -504 -115 -552 -13 -49 -130 -157 -216 -200 -51 -25 -80
-32 -141 -35 -130 -7 -172 30 -180 158 -5 79 17 195 64 345 71 225 189 350
253 268 22 -27 22 -93 2 -148 -8 -21 -8 -32 0 -42 17 -21 74 -28 105 -12 98
47 88 252 -15 312 -46 27 -203 34 -284 13 -140 -37 -260 -153 -342 -330 -40
-86 -84 -247 -92 -334 -6 -62 -6 -62 -72 -119 -102 -87 -156 -109 -268 -109
-83 0 -94 2 -117 24 -35 33 -48 82 -44 161 l3 65 67 11 c109 17 223 80 302
165 73 79 104 145 113 243 14 161 -58 235 -227 236 -156 0 -256 -43 -358 -154
-125 -138 -210 -363 -212 -559 0 -68 -28 -125 -94 -195 -39 -42 -132 -99 -143
-88 -6 6 7 80 37 211 12 50 32 146 45 215 14 69 31 154 40 190 14 61 61 282
72 343 l5 28 -153 -3 -154 -3 -23 -125 c-13 -69 -27 -134 -32 -146 -9 -23
-118 -58 -166 -52 -28 3 -29 5 -35 73 -12 132 -78 230 -171 256 -27 7 -80 9
-140 6 -135 -7 -205 -40 -304 -142 -59 -60 -82 -95 -127 -187 -60 -121 -80
-190 -98 -336 -33 -263 71 -408 302 -420 107 -5 173 12 259 69 135 91 244 291
266 490 3 35 11 69 16 75 5 7 30 15 56 19 26 4 59 13 75 21 37 20 47 11 36
-29 -4 -17 -29 -133 -55 -257 -26 -124 -54 -261 -63 -304 -10 -46 -23 -82 -31
-86 -8 -4 -60 -29 -114 -55 -127 -61 -188 -118 -211 -199 -37 -127 17 -226
142 -262 142 -41 323 31 398 160 34 57 60 142 79 250 9 49 19 93 23 97 5 3 26
12 48 19 57 18 143 75 192 127 l42 45 14 -34 c17 -40 86 -104 136 -125 47 -20
200 -28 275 -14 95 18 197 74 287 159 44 41 81 73 83 71 2 -2 11 -28 21 -58
22 -68 71 -122 138 -152 45 -21 68 -24 167 -24 182 0 293 48 427 184 l73 73 0
-48 c0 -71 38 -146 91 -181 39 -26 50 -28 138 -28 87 0 102 3 162 31 37 18 85
48 107 68 l40 37 55 -55 c41 -41 67 -58 107 -70 104 -31 278 -13 365 38 22 13
64 49 92 79 75 79 87 129 80 317 -11 277 -38 675 -46 683 -5 5 -33 4 -62 -2
-30 -5 -96 -15 -147 -22 -80 -10 -95 -15 -102 -33 -5 -12 -25 -68 -45 -126
-87 -253 -188 -465 -240 -505 -42 -31 -85 -113 -85 -162 0 -43 -53 -76 -122
-77 -41 -1 -53 3 -69 23 -25 31 -24 71 7 204 14 62 45 208 69 325 25 117 47
217 50 222 4 6 33 10 66 10 63 0 66 2 71 55 3 30 3 30 -57 35 -49 4 -59 8 -57
22 1 9 16 81 32 159 28 131 30 160 12 158 -4 0 -68 -10 -142 -21z m-1384 -443
c13 -20 16 -40 12 -89 -13 -151 -158 -316 -278 -316 -25 0 -30 3 -26 18 3 9
12 46 21 82 9 36 36 106 61 157 74 150 166 215 210 148z m-1427 -4 c10 -10 22
-38 26 -61 6 -38 5 -45 -19 -64 -52 -41 -54 -130 -5 -182 18 -20 19 -24 5 -96
-27 -143 -96 -276 -170 -333 -30 -23 -43 -27 -78 -22 -75 10 -83 28 -83 180 1
145 19 236 76 373 73 175 185 268 248 205z m3351 -179 c0 -31 7 -133 16 -227
23 -256 10 -311 -85 -360 -57 -28 -96 -31 -146 -11 -39 17 -62 48 -67 91 -3
25 0 29 17 27 47 -8 69 -2 98 27 39 38 42 89 8 125 l-22 24 34 68 c19 38 51
112 71 164 55 141 55 142 66 135 6 -3 10 -32 10 -63z m-3148 -923 c-6 -56 -52
-157 -84 -184 -36 -31 -65 -32 -95 -3 -39 36 -24 105 34 152 37 30 126 77 138
73 6 -2 8 -19 7 -38z"></path>
<path d="M1955 1678 c-5 -17 -36 -159 -91 -428 -40 -191 -120 -580 -127 -613
-1 -9 36 -13 146 -15 172 -3 153 -18 186 148 12 58 32 159 46 225 13 66 39
193 57 282 l34 162 47 37 c37 29 58 38 89 38 40 1 41 1 58 -51 23 -72 35 -83
84 -83 61 0 107 28 135 83 28 56 23 116 -12 169 -33 48 -62 60 -138 55 -67 -4
-90 -14 -164 -72 -67 -53 -69 -53 -62 -9 4 21 10 49 13 62 l6 22 -151 0 c-112
0 -153 -3 -156 -12z"></path>
</g>
</svg>